HIERARCHY
ROOT SpineBase
{
  OFFSET 0.000000 0.000000 0.000000
  CHANNELS 6 Xposition Yposition Zposition Zrotation Xrotation Yrotation
  JOINT SpineMid
  {
    OFFSET 0.000000 36.224202 0.000000
    CHANNELS 3 Zrotation Xrotation Yrotation
    JOINT SpineShoulder
    {
      OFFSET 0.054665 26.929542 -0.724579
      CHANNELS 3 Zrotation Xrotation Yrotation
      JOINT Neck
      {
        OFFSET 0.089702 8.948981 -0.604676
        CHANNELS 3 Zrotation Xrotation Yrotation
        JOINT Head
        {
          OFFSET 1.698476 11.072072 4.505724
          CHANNELS 3 Zrotation Xrotation Yrotation
          End Site
          {
            OFFSET 0 0 0
          }
        }
      }
      JOINT ShoulderLeft
      {
        OFFSET -7.649041 -4.700677 -4.146304
        CHANNELS 3 Zrotation Xrotation Yrotation
        JOINT ElbowLeft
        {
          OFFSET -6.032889 -21.528857 7.628935
          CHANNELS 3 Zrotation Xrotation Yrotation
          JOINT WristLeft
          {
            OFFSET -2.002658 -25.939854 4.408248
            CHANNELS 3 Zrotation Xrotation Yrotation
            JOINT HandLeft
            {
              OFFSET -0.133647 -5.815903 0.548993
              CHANNELS 3 Zrotation Xrotation Yrotation
              JOINT HandTipLeft
              {
                OFFSET 0.535609 -5.862697 -2.869635
                CHANNELS 3 Zrotation Xrotation Yrotation
                End Site
                {
                  OFFSET 0 0 0
                }
              }
              JOINT ThumbLeft
              {
                OFFSET -0.587982 -0.860236 -2.093112
                CHANNELS 3 Zrotation Xrotation Yrotation
                End Site
                {
                  OFFSET 0 0 0
                }
              }
            }
          }
        }
      }
      JOINT ShoulderRight
      {
        OFFSET 10.888313 -5.582233 -13.276833
        CHANNELS 3 Zrotation Xrotation Yrotation
        JOINT ElbowRight
        {
          OFFSET 3.942659 -25.929883 -2.522260
          CHANNELS 3 Zrotation Xrotation Yrotation
          JOINT WristRight
          {
            OFFSET 2.096935 -21.947226 -0.292376
            CHANNELS 3 Zrotation Xrotation Yrotation
            JOINT HandRight
            {
              OFFSET 0.625668 -5.110279 1.009350
              CHANNELS 3 Zrotation Xrotation Yrotation
              JOINT HandTipRight
              {
                OFFSET 0.011151 -5.347753 -1.134854
                CHANNELS 3 Zrotation Xrotation Yrotation
                End Site
                {
                  OFFSET 0 0 0
                }
              }
              JOINT ThumbRight
              {
                OFFSET -2.051994 2.162130 -0.417915
                CHANNELS 3 Zrotation Xrotation Yrotation
                End Site
                {
                  OFFSET 0 0 0
                }
              }
            }
          }
        }
      }
    }
  }
  JOINT HipLeft
  {
    OFFSET -5.586465 0.803798 -0.978350
    CHANNELS 3 Zrotation Xrotation Yrotation
    JOINT KneeLeft
    {
      OFFSET 1.485755 -33.819612 -1.089922
      CHANNELS 3 Zrotation Xrotation Yrotation
      JOINT AnkleLeft
      {
        OFFSET -3.044823 -34.918683 2.525123
        CHANNELS 3 Zrotation Xrotation Yrotation
        JOINT FootLeft
        {
          OFFSET 9.099977 -3.176504 -9.051104
          CHANNELS 3 Zrotation Xrotation Yrotation
          End Site
          {
            OFFSET 0 0 0
          }
        }
      }
    }
  }
  JOINT HipRight
  {
    OFFSET 6.271306 2.471873 -6.454171
    CHANNELS 3 Zrotation Xrotation Yrotation
    JOINT KneeRight
    {
      OFFSET 0.247656 -34.633234 -3.969741
      CHANNELS 3 Zrotation Xrotation Yrotation
      JOINT AnkleRight
      {
        OFFSET -3.014639 -35.460626 -2.017576
        CHANNELS 3 Zrotation Xrotation Yrotation
        JOINT FootRight
        {
          OFFSET -2.634579 -4.405295 2.639945
          CHANNELS 3 Zrotation Xrotation Yrotation
          End Site
          {
            OFFSET 0 0 0
          }
        }
      }
    }
  }
}
MOTION
Frames: 13
Frame Time: 0.033333
-26.608917 73.403639 256.034000 -0.000000 0.000000 24.787101 -0.000000 0.000000 -24.787101 -0.000000 0.000000 0.000000 -0.000000 0.000000 0.000000 0.000000 0.000000 0.000000 -0.000000 0.000000 0.000000 -0.000000 0.000000 0.000000 -0.000000 0.000000 0.000000 -0.000000 0.000000 0.000000 0.000000 0.000000 0.000000 0.000000 0.000000 0.000000 -0.000000 0.000000 0.000000 -0.000000 0.000000 0.000000 -0.000000 0.000000 0.000000 -0.000000 0.000000 0.000000 0.000000 0.000000 0.000000 0.000000 0.000000 0.000000 -0.000000 0.000000 -24.787101 -0.000000 0.000000 0.000000 -0.000000 0.000000 0.000000 0.000000 0.000000 0.000000 -0.000000 0.000000 -24.787101 -0.000000 0.000000 0.000000 -0.000000 0.000000 0.000000 0.000000 0.000000 0.000000
-26.371136 73.275593 256.107824 0.183893 0.029288 23.635275 -0.180209 0.046894 -23.635248 -0.000000 0.000000 0.000000 -0.000000 0.000000 0.000000 0.000000 0.000000 0.000000 -3.723731 -1.087502 -1.037630 22.776312 12.254738 1.174408 -12.250141 12.247219 -4.331225 9.303603 -30.914153 -1.837382 0.000000 0.000000 0.000000 0.000000 0.000000 0.000000 -0.009128 -1.323102 -0.200633 2.856403 0.223167 0.018394 -4.819943 0.615968 -0.247833 0.849533 -0.938670 0.672490 0.000000 0.000000 0.000000 0.000000 0.000000 0.000000 -2.937818 -0.226171 -23.621209 4.494536 2.798672 -0.098382 -2.695076 -1.967438 0.209307 0.000000 0.000000 0.000000 -0.180209 0.046894 -23.635248 -0.000000 0.000000 0.000000 0.183388 2.293502 -1.282135 0.000000 0.000000 0.000000
-26.153956 73.156645 256.186150 0.352444 0.040285 22.617594 -0.340832 0.098355 -22.617426 -0.000000 0.000000 0.000000 -0.000000 0.000000 0.000000 0.000000 0.000000 0.000000 -5.900156 -1.574046 -1.699684 44.914344 23.327509 -2.315054 -21.813360 18.347491 -11.619333 19.915892 -51.689868 6.392195 0.000000 0.000000 0.000000 0.000000 0.000000 0.000000 0.045140 -2.461791 -0.378563 5.150831 0.314353 -0.021617 -8.855056 0.915379 -0.399185 2.128824 -1.384091 1.152266 0.000000 0.000000 0.000000 0.000000 0.000000 0.000000 -5.346071 -0.470447 -22.599384 8.178087 5.035444 -0.330193 -4.760278 -3.418041 0.338315 0.000000 0.000000 0.000000 -1.175306 1.115543 -22.471113 1.159955 -0.620870 -0.131188 0.351852 4.070583 -2.289750 0.000000 0.000000 0.000000
-25.957377 73.046794 256.268980 0.505835 0.033117 21.728963 -0.482154 0.156504 -21.728451 -0.000000 0.000000 0.000000 -0.000000 0.000000 0.000000 0.000000 0.000000 0.000000 -6.816483 -1.597583 -2.021829 61.641592 29.679402 -7.414478 -26.841903 19.671932 -17.846330 31.561943 -61.838606 18.270572 0.000000 0.000000 0.000000 0.000000 0.000000 0.000000 0.164802 -3.413307 -0.531691 6.920242 0.256734 -0.084689 -12.215104 0.890486 -0.508356 3.961721 -1.253451 1.436261 0.000000 0.000000 0.000000 0.000000 0.000000 0.000000 -7.217905 -0.686821 -21.711874 11.015878 6.690846 -0.595984 -6.182471 -4.344952 0.440826 0.000000 0.000000 0.000000 -1.675501 1.590889 -21.516115 1.636424 -0.896364 -0.181336 0.474458 5.297598 -2.997976 0.000000 0.000000 0.000000
-25.781400 72.946041 256.356313 0.644230 0.007887 20.964756 -0.604407 0.223133 -20.963623 -0.000000 0.000000 0.000000 -0.685876 0.549989 0.197472 0.000000 0.000000 0.000000 -6.604772 -1.208007 -2.033539 71.334082 32.252833 -10.922694 -28.952682 18.420413 -21.089408 38.046950 -65.778067 25.791607 0.000000 0.000000 0.000000 0.000000 0.000000 0.000000 0.351511 -4.175818 -0.658616 8.198395 0.037239 -0.144086 -14.986924 0.519117 -0.619335 6.417515 -0.463349 1.492309 0.000000 0.000000 0.000000 0.000000 0.000000 0.000000 -8.554454 -0.838130 -20.947593 12.982569 7.763993 -0.818134 -6.952252 -4.745971 0.553801 0.000000 0.000000 0.000000 -2.110353 2.020246 -20.691374 2.044110 -1.148306 -0.222277 0.529337 5.961139 -3.392895 0.000000 0.000000 0.000000
-25.626024 72.854385 256.448149 0.767779 -0.035317 20.320814 -0.707737 0.299741 -20.318726 -0.000000 0.000000 0.000000 -0.802386 0.590107 0.239381 0.000000 0.000000 0.000000 -5.267409 -0.386424 -1.752534 74.822123 32.672551 -11.983348 -29.571111 15.573903 -21.569516 35.593446 -66.624070 24.661322 0.000000 0.000000 0.000000 0.000000 0.000000 0.000000 0.606552 -4.748122 -0.758661 9.013583 -0.355266 -0.181272 -17.239627 -0.241179 -0.771754 9.513696 1.066179 1.253014 0.000000 0.000000 0.000000 0.000000 0.000000 0.000000 -9.360006 -0.895194 -20.296533 14.063899 8.262716 -0.944248 -7.064686 -4.619753 0.696586 0.000000 0.000000 0.000000 -2.475700 2.409243 -19.993559 2.383213 -1.376583 -0.254730 0.505640 6.063610 -3.471817 0.000000 0.000000 0.000000
-25.489385 72.772997 256.568041 0.890782 -0.135687 19.662804 -0.793202 0.427485 -19.658791 -0.000000 0.000000 0.000000 -0.914606 0.501341 0.298399 0.000000 0.000000 0.000000 -3.935739 0.280867 -1.451474 74.326616 31.686407 -11.042490 -30.338801 6.702402 -17.774438 16.184133 -61.290181 7.219395 0.000000 0.000000 0.000000 0.000000 0.000000 0.000000 1.260491 -4.888137 -0.814514 9.237660 -1.020574 -0.142251 -21.326125 -2.060708 -1.487420 15.433873 4.499409 0.791024 0.000000 0.000000 0.000000 0.000000 0.000000 0.000000 -9.715018 -0.833949 -19.616993 14.279286 8.389231 -0.978986 -7.926806 -5.859353 -0.148042 0.000000 0.000000 0.000000 -2.766879 2.857316 -19.284400 2.666238 -1.639758 -0.279641 -1.575927 3.950099 -3.293474 0.000000 0.000000 0.000000
-25.381838 72.697880 256.684846 0.985802 -0.236736 19.152639 -0.357638 -0.141523 -19.128611 -0.694216 0.487996 -0.016715 -1.015805 0.463696 0.345327 0.000000 0.000000 0.000000 0.293186 2.304866 -0.552298 62.822766 26.925224 -5.655294 -23.713840 5.217192 -13.725821 3.426624 -54.481033 -2.426615 0.000000 0.000000 0.000000 0.000000 0.000000 0.000000 1.763653 -4.999877 -0.856897 9.170503 -2.102367 -0.094835 -23.943020 -4.106857 -2.086288 21.340234 9.326247 -0.745518 0.000000 0.000000 0.000000 0.000000 0.000000 0.000000 -9.139204 -0.578461 -19.074022 13.002069 7.344270 -0.777293 -5.042954 -2.727929 1.080430 0.000000 0.000000 0.000000 -2.930783 3.234248 -18.739444 2.831529 -1.875020 -0.292182 -4.106161 1.634062 -3.336497 0.000000 0.000000 0.000000
-25.269955 72.638912 256.782772 1.075835 -0.316683 18.909765 -0.362597 -0.137817 -18.882014 -0.777241 0.564867 -0.018231 -1.040874 0.422442 0.361576 0.000000 0.000000 0.000000 10.164202 7.153078 1.014959 45.066595 18.356606 -0.199252 -21.745508 3.537726 -10.958878 0.564753 -48.048371 -5.761376 0.000000 0.000000 0.000000 0.000000 0.000000 0.000000 2.159603 -4.934460 -0.868918 8.627939 -3.280917 -0.032987 -24.276427 -7.075570 -2.690625 27.534026 13.762418 -3.987850 0.000000 0.000000 0.000000 0.000000 0.000000 0.000000 -7.578363 -0.043111 -18.793549 10.035923 5.289664 -0.435627 -2.272064 -0.450893 0.999712 0.000000 0.000000 0.000000 -3.117827 3.501830 -18.463626 2.994362 -2.006229 -0.305761 -0.980085 1.848279 -1.684539 0.000000 0.000000 0.000000
-25.199189 72.587327 256.858328 1.124468 -0.377534 18.860783 -0.352355 -0.142054 -18.830345 -0.182529 0.143219 0.025434 -1.686613 0.841913 0.330127 0.000000 0.000000 0.000000 18.778297 12.218591 1.544651 31.648350 10.926207 1.822984 -18.483373 -0.753136 -7.800866 -4.810236 -40.325057 -9.302504 0.000000 0.000000 0.000000 0.000000 0.000000 0.000000 1.763888 -4.648967 -0.975642 7.589369 -4.080924 0.018329 -21.120443 -9.023006 -2.574267 28.458294 18.834605 -6.697936 0.000000 0.000000 0.000000 0.000000 0.000000 0.000000 -7.025041 0.240350 -18.725439 8.955586 4.427145 -0.328622 -0.323252 1.600674 1.489353 0.000000 0.000000 0.000000 -3.208436 3.646656 -18.396871 3.075346 -2.057957 -0.312639 1.162916 2.950379 -1.121978 0.000000 0.000000 0.000000
-25.145169 72.547860 256.904885 1.158049 -0.417801 18.860740 -0.339536 -0.147493 -18.828290 -0.192746 0.144392 0.027062 -1.657375 0.825284 0.308861 0.000000 0.000000 0.000000 23.880181 15.013641 1.449369 24.407195 6.444179 2.478613 -16.560379 -5.833238 -5.185091 -8.756892 -32.846971 -11.249337 0.000000 0.000000 0.000000 0.000000 0.000000 0.000000 1.755246 -4.892076 -1.018996 6.764377 -4.838570 0.029526 -22.989119 -7.230869 -2.559634 28.731435 15.281111 -4.847473 0.000000 0.000000 0.000000 0.000000 0.000000 0.000000 -6.898445 0.392632 -18.712114 8.727778 4.055182 -0.289355 -0.092705 1.806431 1.150257 0.000000 0.000000 0.000000 -3.305398 3.717959 -18.381096 3.156010 -2.055114 -0.320512 1.712210 2.787384 -0.699269 0.000000 0.000000 0.000000
-25.102326 72.518105 256.952692 1.191325 -0.463067 18.859561 -0.335991 -0.144917 -18.825328 -0.199200 0.148750 0.028415 -1.572393 0.757311 0.275174 0.000000 0.000000 0.000000 25.728942 16.102141 1.301158 22.308859 5.159570 2.578164 -15.469062 -9.876085 -3.419669 -12.105773 -29.081872 -12.016027 0.000000 0.000000 0.000000 0.000000 0.000000 0.000000 1.539673 -5.148091 -1.050949 6.516373 -4.991320 0.008274 -27.168429 -4.689642 -2.590464 31.116958 13.502305 -3.104975 0.000000 0.000000 0.000000 0.000000 0.000000 0.000000 -5.183018 0.908563 -18.710849 5.950576 2.076242 -0.104901 1.447307 2.942977 0.820764 0.000000 0.000000 0.000000 -3.415740 3.799137 -18.361142 3.252669 -2.052678 -0.329931 1.737063 2.785834 -0.683744 0.000000 0.000000 0.000000
-25.069526 72.507255 256.995309 1.213846 -0.498822 18.863338 -0.330360 -0.150459 -18.827628 -0.193981 0.147309 0.030298 -0.755179 0.601556 -0.053108 0.000000 0.000000 0.000000 24.026780 15.394610 1.287215 25.345477 6.786920 2.668149 -15.751011 -11.734098 -2.891665 -14.489855 -29.673212 -12.196336 0.000000 0.000000 0.000000 0.000000 0.000000 0.000000 1.254691 -5.402776 -1.080941 6.428152 -5.035359 -0.022192 -30.968964 -1.694579 -2.188857 32.865825 8.829184 -0.942905 0.000000 0.000000 0.000000 0.000000 0.000000 0.000000 -5.020147 1.035822 -18.708771 5.729564 1.789839 -0.084082 2.520914 4.250597 1.129552 0.000000 0.000000 0.000000 -3.497089 3.857931 -18.350583 3.325806 -2.047207 -0.337140 2.491457 -4.638078 4.318791 0.000000 0.000000 0.000000
